<?xml version="1.0" standalone="no"?>
<!DOCTYPE svg PUBLIC "-//W3C//DTD SVG 20010904//EN"
 "http://www.w3.org/TR/2001/REC-SVG-20010904/DTD/svg10.dtd">
<svg version="1.0" xmlns="http://www.w3.org/2000/svg"
 width="512.000000pt" height="512.000000pt" viewBox="0 0 512.000000 512.000000"
 preserveAspectRatio="xMidYMid meet">

<g transform="translate(0.000000,512.000000) scale(0.100000,-0.100000)"
fill="#000000" stroke="none">
<path d="M3960 5109 c-40 -16 -80 -60 -91 -101 -18 -70 -1 -101 126 -228 63
-63 115 -120 115 -126 0 -7 -412 -422 -916 -923 l-916 -910 -90 45 c-419 211
-928 210 -1347 0 -167 -85 -293 -178 -421 -313 -163 -172 -275 -359 -343 -574
-59 -185 -72 -269 -71 -474 1 -194 16 -295 69 -461 36 -112 145 -326 211 -413
l56 -74 -155 -156 c-157 -158 -187 -198 -187 -247 0 -51 38 -111 84 -133 90
-44 124 -26 317 165 l156 155 74 -56 c86 -65 300 -174 413 -210 168 -54 267
-69 461 -69 129 0 206 5 272 17 546 101 997 492 1173 1017 107 320 96 711 -29
1024 l-32 79 838 841 c461 463 839 843 841 845 1 3 57 -50 125 -116 108 -106
127 -122 165 -128 115 -19 211 112 158 213 -8 15 -62 74 -120 132 -58 57 -106
109 -106 114 0 6 58 69 130 141 144 146 174 195 193 316 29 189 -72 384 -243
467 -163 79 -343 58 -489 -58 l-53 -42 -117 115 c-137 137 -175 156 -251 126z
m752 -399 c45 -13 95 -68 104 -116 15 -82 51 -42 -1051 -1144 l-1036 -1035
-37 45 c-20 25 -66 76 -102 113 l-65 69 1032 1028 c1119 1116 1062 1065 1155
1040z m-3099 -1990 c59 -6 137 -17 172 -25 466 -109 830 -489 921 -962 25
-129 22 -330 -5 -463 -121 -581 -648 -993 -1236 -967 -318 15 -576 128 -801
352 -225 223 -346 494 -360 805 -16 344 110 664 356 910 197 197 466 325 735
349 50 5 95 9 100 10 6 0 59 -4 118 -9z"/>
<path d="M922 1459 c-68 -34 -99 -113 -72 -186 14 -37 376 -401 417 -419 78
-34 165 0 197 77 36 88 29 99 -192 323 -108 109 -211 204 -229 212 -44 19 -71
18 -121 -7z"/>
</g>
</svg>
